<?xml version="1.0" encoding="UTF-8"?>
<svg xmlns="http://www.w3.org/2000/svg"
     width="17.6mm"
     height="28.8mm"
     viewBox="1 -1 11 18">
<g fill="transparent" stroke="#000" stroke-width="0.02" opacity="1">
  <path d="M 8.5 2 A 0.5 0.5 0 0 0 8 1.5 L 7.5 1.5 L 7 1.5 L 6.5 1.5 L 6 1.5 L 5.5 1.5 L 5 1.5 A 0.5 0.5 0 0 0 4.5 2 A 0.5 0.5 0 0 1 4 2.5 A 0.5 0.5 0 0 0 3.5 3 A 0.5 0.5 0 0 0 4 3.5 A 0.5 0.5 0 0 1 4.5 4 A 0.5 0.5 0 0 0 5 4.5 A 0.5 0.5 0 0 0 5.5 4 A 0.5 0.5 0 0 1 6 3.5 L 6.5 3.5 L 7 3.5 L 7.5 3.5 L 8 3.5 A 0.5 0.5 0 0 1 8.5 4 A 0.5 0.5 0 0 0 9 4.5 L 9.5 4.5 L 10 4.5 A 0.5 0.5 0 0 0 10.5 4 A 0.5 0.5 0 0 0 10 3.5 A 0.5 0.5 0 0 1 9.5 3 A 0.5 0.5 0 0 0 9 2.5 A 0.5 0.5 0 0 1 8.5 2 Z" />
  <path d="M 7.5 0.5 L 7 0.5 L 6.5 0.5 L 6 0.5 L 5.5 0.5 L 5 0.5 L 4.5 0.5 L 4 0.5 A 0.5 0.5 0 0 1 3.5 0 A 0.5 0.5 0 0 0 3 -0.5 A 0.5 0.5 0 0 0 2.5 0 A 0.5 0.5 0 0 0 3 0.5 A 0.5 0.5 0 0 1 3.5 1 L 3.5 1.5 L 3.5 2 A 0.5 0.5 0 0 1 3 2.5 A 0.5 0.5 0 0 0 2.5 3 A 0.5 0.5 0 0 0 3 3.5 A 0.5 0.5 0 0 1 3.5 4 A 0.5 0.5 0 0 1 3 4.5 A 0.5 0.5 0 0 0 2.5 5 A 0.5 0.5 0 0 1 2 5.5 A 0.5 0.5 0 0 0 1.5 6 L 1.5 6.5 L 1.5 7 A 0.5 0.5 0 0 0 2 7.5 A 0.5 0.5 0 0 1 2.5 8 A 0.5 0.5 0 0 1 2 8.5 A 0.5 0.5 0 0 0 1.5 9 L 1.5 9.5 L 1.5 10 A 0.5 0.5 0 0 0 2 10.5 A 0.5 0.5 0 0 1 2.5 11 A 0.5 0.5 0 0 0 3 11.5 L 3.5 11.5 L 4 11.5 A 0.5 0.5 0 0 1 4.5 12 A 0.5 0.5 0 0 0 5 12.5 A 0.5 0.5 0 0 1 5.5 13 A 0.5 0.5 0 0 0 6 13.5 L 6.5 13.5 L 7 13.5 A 0.5 0.5 0 0 0 7.5 13 A 0.5 0.5 0 0 1 8 12.5 A 0.5 0.5 0 0 0 8.5 12 A 0.5 0.5 0 0 1 9 11.5 A 0.5 0.5 0 0 1 9.5 12 A 0.5 0.5 0 0 0 10 12.5 A 0.5 0.5 0 0 1 10.5 13 A 0.5 0.5 0 0 1 10 13.5 L 9.5 13.5 L 9 13.5 A 0.5 0.5 0 0 0 8.5 14 A 0.5 0.5 0 0 1 8 14.5 L 7.5 14.5 L 7 14.5 L 6.5 14.5 L 6 14.5 L 5.5 14.5 L 5 14.5 A 0.5 0.5 0 0 1 4.5 14 A 0.5 0.5 0 0 0 4 13.5 A 0.5 0.5 0 0 0 3.5 14 A 0.5 0.5 0 0 0 4 14.5 A 0.5 0.5 0 0 1 4.5 15 A 0.5 0.5 0 0 0 5 15.5 A 0.5 0.5 0 0 1 5.5 16 A 0.5 0.5 0 0 0 6 16.5 L 6.5 16.5 L 7 16.5 A 0.5 0.5 0 0 0 7.5 16 A 0.5 0.5 0 0 1 8 15.5 A 0.5 0.5 0 0 0 8.5 15 A 0.5 0.5 0 0 1 9 14.5 L 9.5 14.5 L 10 14.5 A 0.5 0.5 0 0 0 10.5 14 A 0.5 0.5 0 0 1 11 13.5 A 0.5 0.5 0 0 0 11.5 13 L 11.5 12.5 L 11.5 12 A 0.5 0.5 0 0 0 11 11.5 A 0.5 0.5 0 0 1 10.5 11 A 0.5 0.5 0 0 1 11 10.5 A 0.5 0.5 0 0 0 11.5 10 A 0.5 0.5 0 0 0 11 9.5 A 0.5 0.5 0 0 0 10.5 10 A 0.5 0.5 0 0 1 10 10.5 L 9.5 10.5 L 9 10.5 A 0.5 0.5 0 0 0 8.5 11 A 0.5 0.5 0 0 1 8 11.5 L 7.5 11.5 L 7 11.5 L 6.5 11.5 L 6 11.5 L 5.5 11.5 L 5 11.5 A 0.5 0.5 0 0 1 4.5 11 A 0.5 0.5 0 0 1 5 10.5 L 5.5 10.5 L 6 10.5 L 6.5 10.5 L 7 10.5 A 0.5 0.5 0 0 0 7.5 10 A 0.5 0.5 0 0 1 8 9.5 L 8.5 9.5 L 9 9.5 A 0.5 0.5 0 0 0 9.5 9 A 0.5 0.5 0 0 1 10 8.5 A 0.5 0.5 0 0 0 10.5 8 A 0.5 0.5 0 0 1 11 7.5 A 0.5 0.5 0 0 0 11.5 7 L 11.5 6.5 L 11.5 6 A 0.5 0.5 0 0 0 11 5.5 A 0.5 0.5 0 0 1 10.5 5 A 0.5 0.5 0 0 1 11 4.5 A 0.5 0.5 0 0 0 11.5 4 L 11.5 3.5 L 11.5 3 A 0.5 0.5 0 0 0 11 2.5 A 0.5 0.5 0 0 1 10.5 2 A 0.5 0.5 0 0 0 10 1.5 A 0.5 0.5 0 0 1 9.5 1 A 0.5 0.5 0 0 1 10 0.5 A 0.5 0.5 0 0 0 10.5 0 A 0.5 0.5 0 0 0 10 -0.5 A 0.5 0.5 0 0 0 9.5 0 A 0.5 0.5 0 0 1 9 0.5 L 8.5 0.5 L 8 0.5 L 7.5 0.5 Z" />
  <path d="M 9.5 6.5 L 9 6.5 A 0.5 0.5 0 0 1 8.5 6 A 0.5 0.5 0 0 0 8 5.5 L 7.5 5.5 L 7 5.5 L 6.5 5.5 L 6 5.5 L 5.5 5.5 L 5 5.5 A 0.5 0.5 0 0 0 4.5 6 A 0.5 0.5 0 0 1 4 6.5 L 3.5 6.5 L 3 6.5 A 0.5 0.5 0 0 0 2.5 7 A 0.5 0.5 0 0 0 3 7.5 L 3.5 7.5 L 4 7.5 A 0.5 0.5 0 0 1 4.5 8 A 0.5 0.5 0 0 0 5 8.5 L 5.5 8.5 L 6 8.5 L 6.5 8.5 L 7 8.5 L 7.5 8.5 L 8 8.5 A 0.5 0.5 0 0 0 8.5 8 A 0.5 0.5 0 0 1 9 7.5 L 9.5 7.5 L 10 7.5 A 0.5 0.5 0 0 0 10.5 7 A 0.5 0.5 0 0 0 10 6.5 L 9.5 6.5 Z" />
  <path d="M 3.5 9.5 L 3 9.5 A 0.5 0.5 0 0 0 2.5 10 A 0.5 0.5 0 0 0 3 10.5 L 3.5 10.5 L 4 10.5 A 0.5 0.5 0 0 0 4.5 10 A 0.5 0.5 0 0 0 4 9.5 L 3.5 9.5 Z" />
</g>
</svg>