<?xml version="1.0" encoding="UTF-8"?>
<svg xmlns="http://www.w3.org/2000/svg"
     width="17.6mm"
     height="27.200000000000003mm"
     viewBox="1 -1 11 17">
<g fill="transparent" stroke="#000" stroke-width="0.02" opacity="1">
  <path d="M 5 1.5 L 5.5 1.5 L 6 1.5 L 6.5 1.5 L 7 1.5 L 7.5 1.5 L 8 1.5 L 8.5 1.5 L 9 1.5 A 0.5 0.5 0 0 1 9.5 2 A 0.5 0.5 0 0 0 10 2.5 A 0.5 0.5 0 0 1 10.5 3 L 10.5 3.5 L 10.5 4 A 0.5 0.5 0 0 1 10 4.5 L 9.5 4.5 L 9 4.5 A 0.5 0.5 0 0 1 8.5 4 A 0.5 0.5 0 0 0 8 3.5 L 7.5 3.5 L 7 3.5 L 6.5 3.5 L 6 3.5 L 5.5 3.5 L 5 3.5 A 0.5 0.5 0 0 0 4.5 4 A 0.5 0.5 0 0 1 4 4.5 L 3.5 4.5 L 3 4.5 A 0.5 0.5 0 0 1 2.5 4 A 0.5 0.5 0 0 0 2 3.5 A 0.5 0.5 0 0 0 1.5 4 A 0.5 0.5 0 0 0 2 4.5 A 0.5 0.5 0 0 1 2.5 5 A 0.5 0.5 0 0 1 2 5.5 A 0.5 0.5 0 0 0 1.5 6 L 1.5 6.5 L 1.5 7 A 0.5 0.5 0 0 0 2 7.5 A 0.5 0.5 0 0 1 2.5 8 A 0.5 0.5 0 0 1 2 8.5 A 0.5 0.5 0 0 0 1.5 9 L 1.5 9.5 L 1.5 10 A 0.5 0.5 0 0 0 2 10.5 A 0.5 0.5 0 0 1 2.5 11 A 0.5 0.5 0 0 0 3 11.5 L 3.5 11.5 L 4 11.5 A 0.5 0.5 0 0 1 4.5 12 A 0.5 0.5 0 0 0 5 12.5 L 5.5 12.5 L 6 12.5 L 6.5 12.5 L 7 12.5 L 7.5 12.5 L 8 12.5 A 0.5 0.5 0 0 0 8.5 12 A 0.5 0.5 0 0 1 9 11.5 L 9.5 11.5 L 10 11.5 A 0.5 0.5 0 0 1 10.5 12 L 10.5 12.5 L 10.5 13 A 0.5 0.5 0 0 1 10 13.5 L 9.5 13.5 L 9 13.5 A 0.5 0.5 0 0 0 8.5 14 A 0.5 0.5 0 0 1 8 14.5 L 7.5 14.5 L 7 14.5 L 6.5 14.5 L 6 14.5 L 5.5 14.5 L 5 14.5 A 0.5 0.5 0 0 1 4.5 14 A 0.5 0.5 0 0 0 4 13.5 A 0.5 0.5 0 0 0 3.5 14 A 0.5 0.5 0 0 0 4 14.5 A 0.5 0.5 0 0 1 4.5 15 A 0.5 0.5 0 0 0 5 15.5 L 5.5 15.5 L 6 15.5 L 6.5 15.5 L 7 15.5 L 7.5 15.5 L 8 15.5 A 0.5 0.5 0 0 0 8.5 15 A 0.5 0.5 0 0 1 9 14.5 L 9.5 14.5 L 10 14.5 A 0.5 0.5 0 0 0 10.5 14 A 0.5 0.5 0 0 1 11 13.5 A 0.5 0.5 0 0 0 11.5 13 L 11.5 12.5 L 11.5 12 A 0.5 0.5 0 0 0 11 11.5 A 0.5 0.5 0 0 1 10.5 11 A 0.5 0.5 0 0 1 11 10.5 A 0.5 0.5 0 0 0 11.5 10 A 0.5 0.5 0 0 0 11 9.5 A 0.5 0.5 0 0 0 10.5 10 A 0.5 0.5 0 0 1 10 10.5 L 9.5 10.5 L 9 10.5 A 0.5 0.5 0 0 0 8.5 11 A 0.5 0.5 0 0 1 8 11.5 L 7.5 11.5 L 7 11.5 L 6.5 11.5 L 6 11.5 L 5.5 11.5 L 5 11.5 A 0.5 0.5 0 0 1 4.5 11 A 0.5 0.5 0 0 0 4 10.5 L 3.5 10.5 L 3 10.5 A 0.5 0.5 0 0 1 2.5 10 L 2.5 9.5 L 2.5 9 A 0.5 0.5 0 0 1 3 8.5 L 3.5 8.5 L 4 8.5 A 0.5 0.5 0 0 1 4.5 9 A 0.5 0.5 0 0 0 5 9.5 L 5.5 9.5 L 6 9.5 L 6.5 9.5 L 7 9.5 L 7.5 9.5 L 8 9.5 A 0.5 0.5 0 0 0 8.5 9 A 0.5 0.5 0 0 1 9 8.5 L 9.5 8.5 L 10 8.5 A 0.5 0.5 0 0 0 10.5 8 A 0.5 0.5 0 0 1 11 7.5 A 0.5 0.5 0 0 0 11.5 7 L 11.5 6.5 L 11.5 6 A 0.5 0.5 0 0 0 11 5.5 A 0.5 0.5 0 0 1 10.5 5 A 0.5 0.5 0 0 1 11 4.5 A 0.5 0.5 0 0 0 11.5 4 L 11.5 3.5 L 11.5 3 A 0.5 0.5 0 0 0 11 2.5 A 0.5 0.5 0 0 1 10.5 2 A 0.5 0.5 0 0 0 10 1.5 A 0.5 0.5 0 0 1 9.5 1 A 0.5 0.5 0 0 1 10 0.5 A 0.5 0.5 0 0 0 10.5 0 A 0.5 0.5 0 0 0 10 -0.5 A 0.5 0.5 0 0 0 9.5 0 A 0.5 0.5 0 0 1 9 0.5 L 8.5 0.5 L 8 0.5 L 7.5 0.5 L 7 0.5 L 6.5 0.5 L 6 0.5 L 5.5 0.5 L 5 0.5 L 4.5 0.5 L 4 0.5 A 0.5 0.5 0 0 1 3.5 0 A 0.5 0.5 0 0 0 3 -0.5 A 0.5 0.5 0 0 0 2.5 0 A 0.5 0.5 0 0 0 3 0.5 A 0.5 0.5 0 0 1 3.5 1 A 0.5 0.5 0 0 1 3 1.5 A 0.5 0.5 0 0 0 2.5 2 A 0.5 0.5 0 0 0 3 2.5 A 0.5 0.5 0 0 0 3.5 2 A 0.5 0.5 0 0 1 4 1.5 L 4.5 1.5 L 5 1.5 Z" />
  <path d="M 5 4.5 A 0.5 0.5 0 0 0 4.5 5 A 0.5 0.5 0 0 1 4 5.5 L 3.5 5.5 L 3 5.5 A 0.5 0.5 0 0 0 2.5 6 L 2.5 6.5 L 2.5 7 A 0.5 0.5 0 0 0 3 7.5 L 3.5 7.5 L 4 7.5 A 0.5 0.5 0 0 1 4.5 8 A 0.5 0.5 0 0 0 5 8.5 L 5.5 8.5 L 6 8.5 L 6.5 8.5 L 7 8.5 L 7.5 8.5 L 8 8.5 A 0.5 0.5 0 0 0 8.5 8 A 0.5 0.5 0 0 1 9 7.5 L 9.5 7.5 L 10 7.5 A 0.5 0.5 0 0 0 10.5 7 L 10.5 6.5 L 10.5 6 A 0.5 0.5 0 0 0 10 5.5 L 9.5 5.5 L 9 5.5 A 0.5 0.5 0 0 1 8.5 5 A 0.5 0.5 0 0 0 8 4.5 L 7.5 4.5 L 7 4.5 L 6.5 4.5 L 6 4.5 L 5.5 4.5 L 5 4.5 Z" />
</g>
</svg>