<?xml version="1.0" encoding="UTF-8"?>
<svg xmlns="http://www.w3.org/2000/svg"
     width="36mm"
     height="67.5mm"
     viewBox="4 3 8 15">
<g fill="transparent" stroke="#000" stroke-width="0.02" opacity="1">
  <path d="M 10 13.5 L 10.5 13.5 L 11 13.5 A 0.5 0.5 0 0 0 11.5 13 A 0.5 0.5 0 0 0 11 12.5 L 10.5 12.5 L 10 12.5 A 0.5 0.5 0 0 1 9.5 12 A 0.5 0.5 0 0 1 10 11.5 A 0.5 0.5 0 0 0 10.5 11 A 0.5 0.5 0 0 0 10 10.5 A 0.5 0.5 0 0 0 9.5 11 A 0.5 0.5 0 0 1 9 11.5 A 0.5 0.5 0 0 1 8.5 11 L 8.5 10.5 L 8.5 10 L 8.5 9.5 L 8.5 9 L 8.5 8.5 L 8.5 8 L 8.5 7.5 L 8.5 7 A 0.5 0.5 0 0 1 9 6.5 A 0.5 0.5 0 0 0 9.5 6 L 9.5 5.5 L 9.5 5 A 0.5 0.5 0 0 0 9 4.5 A 0.5 0.5 0 0 1 8.5 4 A 0.5 0.5 0 0 0 8 3.5 A 0.5 0.5 0 0 0 7.5 4 A 0.5 0.5 0 0 1 7 4.5 A 0.5 0.5 0 0 0 6.5 5 L 6.5 5.5 L 6.5 6 A 0.5 0.5 0 0 0 7 6.5 A 0.5 0.5 0 0 1 7.5 7 L 7.5 7.5 L 7.5 8 L 7.5 8.5 L 7.5 9 L 7.5 9.5 L 7.5 10 L 7.5 10.5 L 7.5 11 A 0.5 0.5 0 0 1 7 11.5 A 0.5 0.5 0 0 1 6.5 11 A 0.5 0.5 0 0 0 6 10.5 A 0.5 0.5 0 0 0 5.5 11 A 0.5 0.5 0 0 0 6 11.5 A 0.5 0.5 0 0 1 6.5 12 A 0.5 0.5 0 0 1 6 12.5 L 5.5 12.5 L 5 12.5 A 0.5 0.5 0 0 0 4.5 13 A 0.5 0.5 0 0 0 5 13.5 L 5.5 13.5 L 6 13.5 A 0.5 0.5 0 0 1 6.5 14 A 0.5 0.5 0 0 1 6 14.5 A 0.5 0.5 0 0 0 5.5 15 A 0.5 0.5 0 0 0 6 15.5 A 0.5 0.5 0 0 0 6.5 15 A 0.5 0.5 0 0 1 7 14.5 A 0.5 0.5 0 0 1 7.5 15 L 7.5 15.5 L 7.5 16 L 7.5 16.5 L 7.5 17 A 0.5 0.5 0 0 0 8 17.5 A 0.5 0.5 0 0 0 8.5 17 L 8.5 16.5 L 8.5 16 L 8.5 15.5 L 8.5 15 A 0.5 0.5 0 0 1 9 14.5 A 0.5 0.5 0 0 1 9.5 15 A 0.5 0.5 0 0 0 10 15.5 A 0.5 0.5 0 0 0 10.5 15 A 0.5 0.5 0 0 0 10 14.5 A 0.5 0.5 0 0 1 9.5 14 A 0.5 0.5 0 0 1 10 13.5 Z" />
  <path d="M 8.5 12 A 0.5 0.5 0 0 0 8 11.5 A 0.5 0.5 0 0 0 7.5 12 A 0.5 0.5 0 0 1 7 12.5 A 0.5 0.5 0 0 0 6.5 13 A 0.5 0.5 0 0 0 7 13.5 A 0.5 0.5 0 0 1 7.5 14 A 0.5 0.5 0 0 0 8 14.5 A 0.5 0.5 0 0 0 8.5 14 A 0.5 0.5 0 0 1 9 13.5 A 0.5 0.5 0 0 0 9.5 13 A 0.5 0.5 0 0 0 9 12.5 A 0.5 0.5 0 0 1 8.5 12 Z" />
  <path d="M 7.5 6 A 0.5 0.5 0 0 0 8 6.5 A 0.5 0.5 0 0 0 8.5 6 L 8.5 5.5 L 8.5 5 A 0.5 0.5 0 0 0 8 4.5 A 0.5 0.5 0 0 0 7.5 5 L 7.5 5.5 L 7.5 6 Z" />
</g>
</svg>