<?xml version="1.0" encoding="UTF-8"?>
<svg xmlns="http://www.w3.org/2000/svg"
     width="36mm"
     height="36mm"
     viewBox="4 9 8 8">
<g fill="transparent" stroke="#000" stroke-width="0.02" opacity="1">
  <path d="M 6.5 14 L 6.5 14.5 L 6.5 15 L 6.5 15.5 L 6.5 16 A 0.5 0.5 0 0 0 7 16.5 A 0.5 0.5 0 0 0 7.5 16 L 7.5 15.5 L 7.5 15 A 0.5 0.5 0 0 1 8 14.5 A 0.5 0.5 0 0 1 8.5 15 L 8.5 15.5 L 8.5 16 A 0.5 0.5 0 0 0 9 16.5 A 0.5 0.5 0 0 0 9.5 16 L 9.5 15.5 L 9.5 15 L 9.5 14.5 L 9.5 14 A 0.5 0.5 0 0 1 10 13.5 A 0.5 0.5 0 0 1 10.5 14 A 0.5 0.5 0 0 0 11 14.5 A 0.5 0.5 0 0 0 11.5 14 A 0.5 0.5 0 0 0 11 13.5 A 0.5 0.5 0 0 1 10.5 13 A 0.5 0.5 0 0 1 11 12.5 A 0.5 0.5 0 0 0 11.5 12 A 0.5 0.5 0 0 0 11 11.5 A 0.5 0.5 0 0 0 10.5 12 A 0.5 0.5 0 0 1 10 12.5 A 0.5 0.5 0 0 1 9.5 12 L 9.5 11.5 L 9.5 11 L 9.5 10.5 L 9.5 10 A 0.5 0.5 0 0 0 9 9.5 A 0.5 0.5 0 0 0 8.5 10 L 8.5 10.5 L 8.5 11 A 0.5 0.5 0 0 1 8 11.5 A 0.5 0.5 0 0 1 7.5 11 L 7.5 10.5 L 7.5 10 A 0.5 0.5 0 0 0 7 9.5 A 0.5 0.5 0 0 0 6.5 10 L 6.5 10.5 L 6.5 11 L 6.5 11.5 L 6.5 12 A 0.5 0.5 0 0 1 6 12.5 A 0.5 0.5 0 0 1 5.5 12 A 0.5 0.5 0 0 0 5 11.5 A 0.5 0.5 0 0 0 4.5 12 A 0.5 0.5 0 0 0 5 12.5 A 0.5 0.5 0 0 1 5.5 13 A 0.5 0.5 0 0 1 5 13.5 A 0.5 0.5 0 0 0 4.5 14 A 0.5 0.5 0 0 0 5 14.5 A 0.5 0.5 0 0 0 5.5 14 A 0.5 0.5 0 0 1 6 13.5 A 0.5 0.5 0 0 1 6.5 14 Z" />
  <path d="M 7 13.5 L 7.5 13.5 L 8 13.5 L 8.5 13.5 L 9 13.5 A 0.5 0.5 0 0 0 9.5 13 A 0.5 0.5 0 0 0 9 12.5 L 8.5 12.5 L 8 12.5 L 7.5 12.5 L 7 12.5 A 0.5 0.5 0 0 0 6.5 13 A 0.5 0.5 0 0 0 7 13.5 Z" />
</g>
</svg>