<?xml version="1.0" encoding="UTF-8"?>
<svg xmlns="http://www.w3.org/2000/svg"
     width="92.5mm"
     height="70mm"
     viewBox="-3 40 37 28">
<g fill="transparent" stroke="#000" stroke-width="0.02" opacity="1">
  <path d="M -1 41.5 A 0.5 0.5 0 0 0 -1.5 42 A 0.5 0.5 0 0 1 -2 42.5 A 0.5 0.5 0 0 0 -2.5 43 L -2.5 43.5 L -2.5 44 A 0.5 0.5 0 0 0 -2 44.5 A 0.5 0.5 0 0 1 -1.5 45 L -1.5 45.5 L -1.5 46 A 0.5 0.5 0 0 0 -1 46.5 A 0.5 0.5 0 0 1 -0.5 47 L -0.5 47.5 L -0.5 48 A 0.5 0.5 0 0 0 0 48.5 A 0.5 0.5 0 0 1 0.5 49 A 0.5 0.5 0 0 0 1 49.5 A 0.5 0.5 0 0 1 1.5 50 L 1.5 50.5 L 1.5 51 A 0.5 0.5 0 0 0 2 51.5 A 0.5 0.5 0 0 1 2.5 52 A 0.5 0.5 0 0 0 3 52.5 A 0.5 0.5 0 0 1 3.5 53 L 3.5 53.5 L 3.5 54 A 0.5 0.5 0 0 0 4 54.5 L 4.5 54.5 L 5 54.5 A 0.5 0.5 0 0 1 5.5 55 A 0.5 0.5 0 0 0 6 55.5 A 0.5 0.5 0 0 1 6.5 56 A 0.5 0.5 0 0 1 6 56.5 A 0.5 0.5 0 0 0 5.5 57 A 0.5 0.5 0 0 1 5 57.5 A 0.5 0.5 0 0 0 4.5 58 A 0.5 0.5 0 0 0 5 58.5 A 0.5 0.5 0 0 1 5.5 59 A 0.5 0.5 0 0 0 6 59.5 A 0.5 0.5 0 0 1 6.5 60 A 0.5 0.5 0 0 0 7 60.5 A 0.5 0.5 0 0 1 7.5 61 L 7.5 61.5 L 7.5 62 A 0.5 0.5 0 0 1 7 62.5 A 0.5 0.5 0 0 0 6.5 63 L 6.5 63.5 L 6.5 64 A 0.5 0.5 0 0 1 6 64.5 A 0.5 0.5 0 0 0 5.5 65 L 5.5 65.5 L 5.5 66 L 5.5 66.5 L 5.5 67 A 0.5 0.5 0 0 0 6 67.5 A 0.5 0.5 0 0 0 6.5 67 L 6.5 66.5 L 6.5 66 A 0.5 0.5 0 0 1 7 65.5 A 0.5 0.5 0 0 0 7.5 65 L 7.5 64.5 L 7.5 64 A 0.5 0.5 0 0 1 8 63.5 L 8.5 63.5 L 9 63.5 A 0.5 0.5 0 0 0 9.5 63 A 0.5 0.5 0 0 1 10 62.5 A 0.5 0.5 0 0 1 10.5 63 A 0.5 0.5 0 0 0 11 63.5 A 0.5 0.5 0 0 0 11.5 63 A 0.5 0.5 0 0 1 12 62.5 L 12.5 62.5 L 13 62.5 L 13.5 62.5 L 14 62.5 A 0.5 0.5 0 0 0 14.5 62 A 0.5 0.5 0 0 1 15 61.5 L 15.5 61.5 L 16 61.5 L 16.5 61.5 L 17 61.5 L 17.5 61.5 L 18 61.5 L 18.5 61.5 L 19 61.5 A 0.5 0.5 0 0 1 19.5 62 A 0.5 0.5 0 0 0 20 62.5 L 20.5 62.5 L 21 62.5 A 0.5 0.5 0 0 1 21.5 63 A 0.5 0.5 0 0 0 22 63.5 A 0.5 0.5 0 0 1 22.5 64 A 0.5 0.5 0 0 0 23 64.5 A 0.5 0.5 0 0 1 23.5 65 A 0.5 0.5 0 0 0 24 65.5 A 0.5 0.5 0 0 1 24.5 66 L 24.5 66.5 L 24.5 67 A 0.5 0.5 0 0 0 25 67.5 A 0.5 0.5 0 0 0 25.5 67 L 25.5 66.5 L 25.5 66 L 25.5 65.5 L 25.5 65 A 0.5 0.5 0 0 0 25 64.5 A 0.5 0.5 0 0 1 24.5 64 L 24.5 63.5 L 24.5 63 A 0.5 0.5 0 0 0 24 62.5 A 0.5 0.5 0 0 1 23.5 62 L 23.5 61.5 L 23.5 61 A 0.5 0.5 0 0 1 24 60.5 A 0.5 0.5 0 0 0 24.5 60 L 24.5 59.5 L 24.5 59 A 0.5 0.5 0 0 1 25 58.5 A 0.5 0.5 0 0 0 25.5 58 A 0.5 0.5 0 0 0 25 57.5 A 0.5 0.5 0 0 1 24.5 57 A 0.5 0.5 0 0 1 25 56.5 A 0.5 0.5 0 0 0 25.5 56 A 0.5 0.5 0 0 0 25 55.5 A 0.5 0.5 0 0 1 24.5 55 A 0.5 0.5 0 0 1 25 54.5 L 25.5 54.5 L 26 54.5 A 0.5 0.5 0 0 0 26.5 54 A 0.5 0.5 0 0 1 27 53.5 A 0.5 0.5 0 0 0 27.5 53 A 0.5 0.5 0 0 1 28 52.5 A 0.5 0.5 0 0 0 28.5 52 L 28.5 51.5 L 28.5 51 A 0.5 0.5 0 0 1 29 50.5 A 0.5 0.5 0 0 0 29.5 50 L 29.5 49.5 L 29.5 49 A 0.5 0.5 0 0 1 30 48.5 A 0.5 0.5 0 0 0 30.5 48 A 0.5 0.5 0 0 1 31 47.5 A 0.5 0.5 0 0 0 31.5 47 A 0.5 0.5 0 0 1 32 46.5 A 0.5 0.5 0 0 0 32.5 46 L 32.5 45.5 L 32.5 45 A 0.5 0.5 0 0 1 33 44.5 A 0.5 0.5 0 0 0 33.5 44 L 33.5 43.5 L 33.5 43 A 0.5 0.5 0 0 0 33 42.5 A 0.5 0.5 0 0 1 32.5 42 A 0.5 0.5 0 0 0 32 41.5 L 31.5 41.5 L 31 41.5 L 30.5 41.5 L 30 41.5 A 0.5 0.5 0 0 0 29.5 42 A 0.5 0.5 0 0 1 29 42.5 L 28.5 42.5 L 28 42.5 L 27.5 42.5 L 27 42.5 A 0.5 0.5 0 0 0 26.5 43 A 0.5 0.5 0 0 1 26 43.5 L 25.5 43.5 L 25 43.5 A 0.5 0.5 0 0 0 24.5 44 A 0.5 0.5 0 0 1 24 44.5 A 0.5 0.5 0 0 0 23.5 45 A 0.5 0.5 0 0 1 23 45.5 L 22.5 45.5 L 22 45.5 A 0.5 0.5 0 0 0 21.5 46 A 0.5 0.5 0 0 1 21 46.5 A 0.5 0.5 0 0 0 20.5 47 A 0.5 0.5 0 0 1 20 47.5 A 0.5 0.5 0 0 0 19.5 48 A 0.5 0.5 0 0 1 19 48.5 A 0.5 0.5 0 0 0 18.5 49 A 0.5 0.5 0 0 1 18 49.5 A 0.5 0.5 0 0 1 17.5 49 L 17.5 48.5 L 17.5 48 A 0.5 0.5 0 0 1 18 47.5 A 0.5 0.5 0 0 0 18.5 47 L 18.5 46.5 L 18.5 46 A 0.5 0.5 0 0 1 19 45.5 A 0.5 0.5 0 0 0 19.5 45 L 19.5 44.5 L 19.5 44 L 19.5 43.5 L 19.5 43 A 0.5 0.5 0 0 0 19 42.5 A 0.5 0.5 0 0 1 18.5 42 L 18.5 41.5 L 18.5 41 A 0.5 0.5 0 0 0 18 40.5 A 0.5 0.5 0 0 0 17.5 41 L 17.5 41.5 L 17.5 42 A 0.5 0.5 0 0 0 18 42.5 A 0.5 0.5 0 0 1 18.5 43 L 18.5 43.5 L 18.5 44 A 0.5 0.5 0 0 1 18 44.5 A 0.5 0.5 0 0 0 17.5 45 L 17.5 45.5 L 17.5 46 A 0.5 0.5 0 0 1 17 46.5 A 0.5 0.5 0 0 0 16.5 47 L 16.5 47.5 L 16.5 48 L 16.5 48.5 L 16.5 49 L 16.5 49.5 L 16.5 50 A 0.5 0.5 0 0 1 16 50.5 L 15.5 50.5 L 15 50.5 A 0.5 0.5 0 0 1 14.5 50 L 14.5 49.5 L 14.5 49 L 14.5 48.5 L 14.5 48 A 0.5 0.5 0 0 0 14 47.5 A 0.5 0.5 0 0 1 13.5 47 L 13.5 46.5 L 13.5 46 L 13.5 45.5 L 13.5 45 A 0.5 0.5 0 0 0 13 44.5 A 0.5 0.5 0 0 1 12.5 44 L 12.5 43.5 L 12.5 43 A 0.5 0.5 0 0 0 12 42.5 A 0.5 0.5 0 0 0 11.5 43 L 11.5 43.5 L 11.5 44 L 11.5 44.5 L 11.5 45 L 11.5 45.5 L 11.5 46 A 0.5 0.5 0 0 0 12 46.5 A 0.5 0.5 0 0 1 12.5 47 L 12.5 47.5 L 12.5 48 A 0.5 0.5 0 0 0 13 48.5 A 0.5 0.5 0 0 1 13.5 49 L 13.5 49.5 L 13.5 50 A 0.5 0.5 0 0 1 13 50.5 A 0.5 0.5 0 0 1 12.5 50 A 0.5 0.5 0 0 0 12 49.5 A 0.5 0.5 0 0 1 11.5 49 L 11.5 48.5 L 11.5 48 A 0.5 0.5 0 0 0 11 47.5 L 10.5 47.5 L 10 47.5 A 0.5 0.5 0 0 1 9.5 47 A 0.5 0.5 0 0 0 9 46.5 A 0.5 0.5 0 0 1 8.5 46 A 0.5 0.5 0 0 0 8 45.5 A 0.5 0.5 0 0 1 7.5 45 A 0.5 0.5 0 0 0 7 44.5 A 0.5 0.5 0 0 1 6.5 44 A 0.5 0.5 0 0 0 6 43.5 L 5.5 43.5 L 5 43.5 L 4.5 43.5 L 4 43.5 A 0.5 0.5 0 0 1 3.5 43 A 0.5 0.5 0 0 0 3 42.5 L 2.5 42.5 L 2 42.5 A 0.5 0.5 0 0 1 1.5 42 A 0.5 0.5 0 0 0 1 41.5 L 0.5 41.5 L 0 41.5 L -0.5 41.5 L -1 41.5 Z" />
  <path d="M 0 43.5 A 0.5 0.5 0 0 0 -0.5 44 L -0.5 44.5 L -0.5 45 A 0.5 0.5 0 0 0 0 45.5 L 0.5 45.5 L 1 45.5 A 0.5 0.5 0 0 0 1.5 45 L 1.5 44.5 L 1.5 44 A 0.5 0.5 0 0 0 1 43.5 L 0.5 43.5 L 0 43.5 Z" />
  <path d="M 29.5 44 L 29.5 44.5 L 29.5 45 A 0.5 0.5 0 0 0 30 45.5 L 30.5 45.5 L 31 45.5 A 0.5 0.5 0 0 0 31.5 45 L 31.5 44.5 L 31.5 44 A 0.5 0.5 0 0 0 31 43.5 L 30.5 43.5 L 30 43.5 A 0.5 0.5 0 0 0 29.5 44 Z" />
  <path d="M 3 46.5 A 0.5 0.5 0 0 0 2.5 47 A 0.5 0.5 0 0 0 3 47.5 A 0.5 0.5 0 0 1 3.5 48 A 0.5 0.5 0 0 0 4 48.5 L 4.5 48.5 L 5 48.5 A 0.5 0.5 0 0 0 5.5 48 A 0.5 0.5 0 0 0 5 47.5 A 0.5 0.5 0 0 1 4.5 47 A 0.5 0.5 0 0 0 4 46.5 L 3.5 46.5 L 3 46.5 Z" />
  <path d="M 7 49.5 A 0.5 0.5 0 0 0 6.5 50 L 6.5 50.5 L 6.5 51 L 6.5 51.5 L 6.5 52 L 6.5 52.5 L 6.5 53 A 0.5 0.5 0 0 0 7 53.5 A 0.5 0.5 0 0 0 7.5 53 L 7.5 52.5 L 7.5 52 L 7.5 51.5 L 7.5 51 A 0.5 0.5 0 0 1 8 50.5 A 0.5 0.5 0 0 0 8.5 50 A 0.5 0.5 0 0 0 8 49.5 L 7.5 49.5 L 7 49.5 Z" />
  <path d="M 9.5 50 A 0.5 0.5 0 0 1 9 50.5 A 0.5 0.5 0 0 0 8.5 51 L 8.5 51.5 L 8.5 52 L 8.5 52.5 L 8.5 53 A 0.5 0.5 0 0 1 8 53.5 A 0.5 0.5 0 0 0 7.5 54 L 7.5 54.5 L 7.5 55 A 0.5 0.5 0 0 0 8 55.5 A 0.5 0.5 0 0 0 8.5 55 A 0.5 0.5 0 0 1 9 54.5 A 0.5 0.5 0 0 1 9.5 55 A 0.5 0.5 0 0 1 9 55.5 A 0.5 0.5 0 0 0 8.5 56 A 0.5 0.5 0 0 1 8 56.5 A 0.5 0.5 0 0 0 7.5 57 A 0.5 0.5 0 0 0 8 57.5 A 0.5 0.5 0 0 1 8.5 58 A 0.5 0.5 0 0 0 9 58.5 A 0.5 0.5 0 0 1 9.5 59 A 0.5 0.5 0 0 0 10 59.5 L 10.5 59.5 L 11 59.5 L 11.5 59.5 L 12 59.5 L 12.5 59.5 L 13 59.5 A 0.5 0.5 0 0 0 13.5 59 L 13.5 58.5 L 13.5 58 A 0.5 0.5 0 0 0 13 57.5 A 0.5 0.5 0 0 0 12.5 58 A 0.5 0.5 0 0 1 12 58.5 A 0.5 0.5 0 0 1 11.5 58 A 0.5 0.5 0 0 1 12 57.5 A 0.5 0.5 0 0 0 12.5 57 L 12.5 56.5 L 12.5 56 A 0.5 0.5 0 0 1 13 55.5 A 0.5 0.5 0 0 0 13.5 55 A 0.5 0.5 0 0 0 13 54.5 A 0.5 0.5 0 0 1 12.5 54 L 12.5 53.5 L 12.5 53 A 0.5 0.5 0 0 0 12 52.5 A 0.5 0.5 0 0 1 11.5 52 A 0.5 0.5 0 0 0 11 51.5 A 0.5 0.5 0 0 0 10.5 52 L 10.5 52.5 L 10.5 53 A 0.5 0.5 0 0 0 11 53.5 A 0.5 0.5 0 0 1 11.5 54 L 11.5 54.5 L 11.5 55 A 0.5 0.5 0 0 1 11 55.5 A 0.5 0.5 0 0 1 10.5 55 L 10.5 54.5 L 10.5 54 A 0.5 0.5 0 0 0 10 53.5 A 0.5 0.5 0 0 1 9.5 53 L 9.5 52.5 L 9.5 52 A 0.5 0.5 0 0 1 10 51.5 A 0.5 0.5 0 0 0 10.5 51 L 10.5 50.5 L 10.5 50 A 0.5 0.5 0 0 0 10 49.5 A 0.5 0.5 0 0 0 9.5 50 Z" />
  <path d="M 22 50.5 A 0.5 0.5 0 0 0 21.5 51 L 21.5 51.5 L 21.5 52 A 0.5 0.5 0 0 1 21 52.5 L 20.5 52.5 L 20 52.5 A 0.5 0.5 0 0 1 19.5 52 A 0.5 0.5 0 0 0 19 51.5 A 0.5 0.5 0 0 0 18.5 52 A 0.5 0.5 0 0 1 18 52.5 L 17.5 52.5 L 17 52.5 A 0.5 0.5 0 0 0 16.5 53 A 0.5 0.5 0 0 0 17 53.5 A 0.5 0.5 0 0 1 17.5 54 L 17.5 54.5 L 17.5 55 L 17.5 55.5 L 17.5 56 L 17.5 56.5 L 17.5 57 L 17.5 57.5 L 17.5 58 L 17.5 58.5 L 17.5 59 A 0.5 0.5 0 0 0 18 59.5 A 0.5 0.5 0 0 1 18.5 60 A 0.5 0.5 0 0 0 19 60.5 A 0.5 0.5 0 0 0 19.5 60 A 0.5 0.5 0 0 1 20 59.5 A 0.5 0.5 0 0 1 20.5 60 A 0.5 0.5 0 0 0 21 60.5 A 0.5 0.5 0 0 0 21.5 60 L 21.5 59.5 L 21.5 59 A 0.5 0.5 0 0 1 22 58.5 A 0.5 0.5 0 0 0 22.5 58 A 0.5 0.5 0 0 1 23 57.5 A 0.5 0.5 0 0 0 23.5 57 L 23.5 56.5 L 23.5 56 A 0.5 0.5 0 0 0 23 55.5 A 0.5 0.5 0 0 1 22.5 55 L 22.5 54.5 L 22.5 54 L 22.5 53.5 L 22.5 53 A 0.5 0.5 0 0 1 23 52.5 A 0.5 0.5 0 0 0 23.5 52 A 0.5 0.5 0 0 1 24 51.5 L 24.5 51.5 L 25 51.5 A 0.5 0.5 0 0 0 25.5 51 L 25.5 50.5 L 25.5 50 A 0.5 0.5 0 0 0 25 49.5 A 0.5 0.5 0 0 0 24.5 50 A 0.5 0.5 0 0 1 24 50.5 L 23.5 50.5 L 23 50.5 L 22.5 50.5 L 22 50.5 Z" />
  <path d="M 14.5 53 L 14.5 53.5 L 14.5 54 A 0.5 0.5 0 0 0 15 54.5 A 0.5 0.5 0 0 0 15.5 54 L 15.5 53.5 L 15.5 53 A 0.5 0.5 0 0 0 15 52.5 A 0.5 0.5 0 0 0 14.5 53 Z" />
  <path d="M 13.5 56 L 13.5 56.5 L 13.5 57 A 0.5 0.5 0 0 0 14 57.5 A 0.5 0.5 0 0 0 14.5 57 L 14.5 56.5 L 14.5 56 A 0.5 0.5 0 0 0 14 55.5 A 0.5 0.5 0 0 0 13.5 56 Z" />
  <path d="M 15.5 57 L 15.5 57.5 L 15.5 58 A 0.5 0.5 0 0 1 15 58.5 A 0.5 0.5 0 0 0 14.5 59 A 0.5 0.5 0 0 1 14 59.5 A 0.5 0.5 0 0 0 13.5 60 L 13.5 60.5 L 13.5 61 A 0.5 0.5 0 0 0 14 61.5 A 0.5 0.5 0 0 0 14.5 61 A 0.5 0.5 0 0 1 15 60.5 L 15.5 60.5 L 16 60.5 L 16.5 60.5 L 17 60.5 A 0.5 0.5 0 0 0 17.5 60 A 0.5 0.5 0 0 0 17 59.5 A 0.5 0.5 0 0 1 16.5 59 L 16.5 58.5 L 16.5 58 L 16.5 57.5 L 16.5 57 A 0.5 0.5 0 0 0 16 56.5 A 0.5 0.5 0 0 0 15.5 57 Z" />
</g>
</svg>