<?xml version="1.0" encoding="UTF-8"?>
<svg xmlns="http://www.w3.org/2000/svg"
     width="82.5mm"
     height="50mm"
     viewBox="-1 43 33 20">
<g fill="transparent" stroke="#000" stroke-width="0.02" opacity="1">
  <path d="M 3.5 43.5 L 3 43.5 L 2.5 43.5 L 2 43.5 A 0.5 0.5 0 0 0 1.5 44 L 1.5 44.5 L 1.5 45 A 0.5 0.5 0 0 1 1 45.5 L 0.5 45.5 L 0 45.5 A 0.5 0.5 0 0 0 -0.5 46 L -0.5 46.5 L -0.5 47 L -0.5 47.5 L -0.5 48 A 0.5 0.5 0 0 0 0 48.5 A 0.5 0.5 0 0 1 0.5 49 A 0.5 0.5 0 0 0 1 49.5 A 0.5 0.5 0 0 1 1.5 50 L 1.5 50.5 L 1.5 51 A 0.5 0.5 0 0 0 2 51.5 A 0.5 0.5 0 0 1 2.5 52 L 2.5 52.5 L 2.5 53 A 0.5 0.5 0 0 0 3 53.5 A 0.5 0.5 0 0 1 3.5 54 A 0.5 0.5 0 0 0 4 54.5 L 4.5 54.5 L 5 54.5 A 0.5 0.5 0 0 1 5.5 55 A 0.5 0.5 0 0 0 6 55.5 A 0.5 0.5 0 0 1 6.5 56 A 0.5 0.5 0 0 1 6 56.5 A 0.5 0.5 0 0 0 5.5 57 A 0.5 0.5 0 0 1 5 57.5 A 0.5 0.5 0 0 0 4.5 58 A 0.5 0.5 0 0 0 5 58.5 A 0.5 0.5 0 0 1 5.5 59 A 0.5 0.5 0 0 0 6 59.5 A 0.5 0.5 0 0 1 6.5 60 A 0.5 0.5 0 0 0 7 60.5 A 0.5 0.5 0 0 1 7.5 61 L 7.5 61.5 L 7.5 62 A 0.5 0.5 0 0 0 8 62.5 L 8.5 62.5 L 9 62.5 L 9.5 62.5 L 10 62.5 L 10.5 62.5 L 11 62.5 L 11.5 62.5 L 12 62.5 L 12.5 62.5 L 13 62.5 L 13.5 62.5 L 14 62.5 A 0.5 0.5 0 0 0 14.5 62 A 0.5 0.5 0 0 1 15 61.5 L 15.5 61.5 L 16 61.5 L 16.5 61.5 L 17 61.5 L 17.5 61.5 L 18 61.5 A 0.5 0.5 0 0 1 18.5 62 A 0.5 0.5 0 0 0 19 62.5 L 19.5 62.5 L 20 62.5 L 20.5 62.5 L 21 62.5 L 21.5 62.5 L 22 62.5 L 22.5 62.5 L 23 62.5 A 0.5 0.5 0 0 0 23.5 62 L 23.5 61.5 L 23.5 61 A 0.5 0.5 0 0 1 24 60.5 A 0.5 0.5 0 0 0 24.5 60 L 24.5 59.5 L 24.5 59 A 0.5 0.5 0 0 1 25 58.5 A 0.5 0.5 0 0 0 25.5 58 A 0.5 0.5 0 0 0 25 57.5 A 0.5 0.5 0 0 1 24.5 57 A 0.5 0.5 0 0 1 25 56.5 A 0.5 0.5 0 0 0 25.5 56 A 0.5 0.5 0 0 0 25 55.5 A 0.5 0.5 0 0 1 24.5 55 A 0.5 0.5 0 0 1 25 54.5 L 25.5 54.5 L 26 54.5 A 0.5 0.5 0 0 0 26.5 54 A 0.5 0.5 0 0 1 27 53.5 A 0.5 0.5 0 0 0 27.5 53 A 0.5 0.5 0 0 1 28 52.5 A 0.5 0.5 0 0 0 28.5 52 L 28.5 51.5 L 28.5 51 A 0.5 0.5 0 0 1 29 50.5 A 0.5 0.5 0 0 0 29.5 50 L 29.5 49.5 L 29.5 49 A 0.5 0.5 0 0 1 30 48.5 A 0.5 0.5 0 0 0 30.5 48 A 0.5 0.5 0 0 1 31 47.5 A 0.5 0.5 0 0 0 31.5 47 L 31.5 46.5 L 31.5 46 A 0.5 0.5 0 0 0 31 45.5 L 30.5 45.5 L 30 45.5 A 0.5 0.5 0 0 1 29.5 45 L 29.5 44.5 L 29.5 44 A 0.5 0.5 0 0 0 29 43.5 L 28.5 43.5 L 28 43.5 L 27.5 43.5 L 27 43.5 L 26.5 43.5 L 26 43.5 L 25.5 43.5 L 25 43.5 A 0.5 0.5 0 0 0 24.5 44 A 0.5 0.5 0 0 1 24 44.5 A 0.5 0.5 0 0 0 23.5 45 A 0.5 0.5 0 0 1 23 45.5 L 22.5 45.5 L 22 45.5 A 0.5 0.5 0 0 0 21.5 46 A 0.5 0.5 0 0 1 21 46.5 A 0.5 0.5 0 0 0 20.5 47 A 0.5 0.5 0 0 1 20 47.5 A 0.5 0.5 0 0 0 19.5 48 A 0.5 0.5 0 0 1 19 48.5 A 0.5 0.5 0 0 0 18.5 49 A 0.5 0.5 0 0 1 18 49.5 A 0.5 0.5 0 0 0 17.5 50 A 0.5 0.5 0 0 1 17 50.5 L 16.5 50.5 L 16 50.5 L 15.5 50.5 L 15 50.5 L 14.5 50.5 L 14 50.5 L 13.5 50.5 L 13 50.5 A 0.5 0.5 0 0 1 12.5 50 L 12.5 49.5 L 12.5 49 A 0.5 0.5 0 0 0 12 48.5 A 0.5 0.5 0 0 1 11.5 48 A 0.5 0.5 0 0 0 11 47.5 L 10.5 47.5 L 10 47.5 A 0.5 0.5 0 0 1 9.5 47 A 0.5 0.5 0 0 0 9 46.5 A 0.5 0.5 0 0 1 8.5 46 A 0.5 0.5 0 0 0 8 45.5 A 0.5 0.5 0 0 1 7.5 45 A 0.5 0.5 0 0 0 7 44.5 A 0.5 0.5 0 0 1 6.5 44 A 0.5 0.5 0 0 0 6 43.5 L 5.5 43.5 L 5 43.5 L 4.5 43.5 L 4 43.5 L 3.5 43.5 Z" />
  <path d="M 3 45.5 A 0.5 0.5 0 0 0 2.5 46 L 2.5 46.5 L 2.5 47 A 0.5 0.5 0 0 1 2 47.5 A 0.5 0.5 0 0 0 1.5 48 A 0.5 0.5 0 0 0 2 48.5 A 0.5 0.5 0 0 1 2.5 49 A 0.5 0.5 0 0 0 3 49.5 A 0.5 0.5 0 0 1 3.5 50 A 0.5 0.5 0 0 0 4 50.5 A 0.5 0.5 0 0 0 4.5 50 A 0.5 0.5 0 0 1 5 49.5 A 0.5 0.5 0 0 0 5.5 49 A 0.5 0.5 0 0 1 6 48.5 A 0.5 0.5 0 0 0 6.5 48 L 6.5 47.5 L 6.5 47 A 0.5 0.5 0 0 0 6 46.5 A 0.5 0.5 0 0 1 5.5 46 A 0.5 0.5 0 0 0 5 45.5 L 4.5 45.5 L 4 45.5 L 3.5 45.5 L 3 45.5 Z" />
  <path d="M 5.5 51 L 5.5 51.5 L 5.5 52 L 5.5 52.5 L 5.5 53 A 0.5 0.5 0 0 0 6 53.5 A 0.5 0.5 0 0 1 6.5 54 A 0.5 0.5 0 0 0 7 54.5 A 0.5 0.5 0 0 1 7.5 55 L 7.5 55.5 L 7.5 56 L 7.5 56.5 L 7.5 57 L 7.5 57.5 L 7.5 58 A 0.5 0.5 0 0 0 8 58.5 A 0.5 0.5 0 0 1 8.5 59 A 0.5 0.5 0 0 0 9 59.5 A 0.5 0.5 0 0 1 9.5 60 A 0.5 0.5 0 0 0 10 60.5 L 10.5 60.5 L 11 60.5 L 11.5 60.5 L 12 60.5 L 12.5 60.5 L 13 60.5 L 13.5 60.5 L 14 60.5 L 14.5 60.5 L 15 60.5 A 0.5 0.5 0 0 0 15.5 60 A 0.5 0.5 0 0 1 16 59.5 L 16.5 59.5 L 17 59.5 L 17.5 59.5 L 18 59.5 A 0.5 0.5 0 0 1 18.5 60 A 0.5 0.5 0 0 0 19 60.5 L 19.5 60.5 L 20 60.5 L 20.5 60.5 L 21 60.5 A 0.5 0.5 0 0 0 21.5 60 A 0.5 0.5 0 0 1 22 59.5 A 0.5 0.5 0 0 0 22.5 59 L 22.5 58.5 L 22.5 58 A 0.5 0.5 0 0 1 23 57.5 A 0.5 0.5 0 0 0 23.5 57 L 23.5 56.5 L 23.5 56 A 0.5 0.5 0 0 0 23 55.5 A 0.5 0.5 0 0 1 22.5 55 A 0.5 0.5 0 0 1 23 54.5 A 0.5 0.5 0 0 0 23.5 54 A 0.5 0.5 0 0 1 24 53.5 A 0.5 0.5 0 0 0 24.5 53 L 24.5 52.5 L 24.5 52 L 24.5 51.5 L 24.5 51 A 0.5 0.5 0 0 0 24 50.5 A 0.5 0.5 0 0 1 23.5 50 A 0.5 0.5 0 0 0 23 49.5 L 22.5 49.5 L 22 49.5 A 0.5 0.5 0 0 0 21.5 50 A 0.5 0.5 0 0 1 21 50.5 L 20.5 50.5 L 20 50.5 A 0.5 0.5 0 0 0 19.5 51 A 0.5 0.5 0 0 1 19 51.5 L 18.5 51.5 L 18 51.5 L 17.5 51.5 L 17 51.5 L 16.5 51.5 L 16 51.5 L 15.5 51.5 L 15 51.5 L 14.5 51.5 L 14 51.5 L 13.5 51.5 L 13 51.5 L 12.5 51.5 L 12 51.5 L 11.5 51.5 L 11 51.5 A 0.5 0.5 0 0 1 10.5 51 A 0.5 0.5 0 0 0 10 50.5 L 9.5 50.5 L 9 50.5 A 0.5 0.5 0 0 1 8.5 50 A 0.5 0.5 0 0 0 8 49.5 L 7.5 49.5 L 7 49.5 A 0.5 0.5 0 0 0 6.5 50 A 0.5 0.5 0 0 1 6 50.5 A 0.5 0.5 0 0 0 5.5 51 Z" />
  <path d="M 23.5 47 A 0.5 0.5 0 0 1 23 47.5 A 0.5 0.5 0 0 0 22.5 48 A 0.5 0.5 0 0 0 23 48.5 L 23.5 48.5 L 24 48.5 A 0.5 0.5 0 0 1 24.5 49 A 0.5 0.5 0 0 0 25 49.5 A 0.5 0.5 0 0 1 25.5 50 L 25.5 50.5 L 25.5 51 A 0.5 0.5 0 0 0 26 51.5 A 0.5 0.5 0 0 0 26.5 51 A 0.5 0.5 0 0 1 27 50.5 A 0.5 0.5 0 0 0 27.5 50 L 27.5 49.5 L 27.5 49 L 27.5 48.5 L 27.5 48 A 0.5 0.5 0 0 1 28 47.5 A 0.5 0.5 0 0 0 28.5 47 A 0.5 0.5 0 0 0 28 46.5 A 0.5 0.5 0 0 1 27.5 46 A 0.5 0.5 0 0 0 27 45.5 L 26.5 45.5 L 26 45.5 A 0.5 0.5 0 0 0 25.5 46 A 0.5 0.5 0 0 1 25 46.5 L 24.5 46.5 L 24 46.5 A 0.5 0.5 0 0 0 23.5 47 Z" />
</g>
</svg>