<?xml version="1.0" encoding="UTF-8"?>
<svg xmlns="http://www.w3.org/2000/svg"
     width="92.5mm"
     height="67.5mm"
     viewBox="-3 41 37 27">
<g fill="transparent" stroke="#000" stroke-width="0.02" opacity="1">
  <path d="M -1 41.5 A 0.5 0.5 0 0 0 -1.5 42 A 0.5 0.5 0 0 1 -2 42.5 A 0.5 0.5 0 0 0 -2.5 43 L -2.5 43.5 L -2.5 44 A 0.5 0.5 0 0 0 -2 44.5 A 0.5 0.5 0 0 1 -1.5 45 L -1.5 45.5 L -1.5 46 A 0.5 0.5 0 0 0 -1 46.5 A 0.5 0.5 0 0 1 -0.5 47 L -0.5 47.5 L -0.5 48 A 0.5 0.5 0 0 0 0 48.5 A 0.5 0.5 0 0 1 0.5 49 A 0.5 0.5 0 0 0 1 49.5 A 0.5 0.5 0 0 1 1.5 50 L 1.5 50.5 L 1.5 51 A 0.5 0.5 0 0 0 2 51.5 A 0.5 0.5 0 0 1 2.5 52 L 2.5 52.5 L 2.5 53 A 0.5 0.5 0 0 0 3 53.5 A 0.5 0.5 0 0 1 3.5 54 A 0.5 0.5 0 0 0 4 54.5 L 4.5 54.5 L 5 54.5 A 0.5 0.5 0 0 1 5.5 55 A 0.5 0.5 0 0 0 6 55.5 A 0.5 0.5 0 0 1 6.5 56 A 0.5 0.5 0 0 1 6 56.5 A 0.5 0.5 0 0 0 5.5 57 A 0.5 0.5 0 0 1 5 57.5 A 0.5 0.5 0 0 0 4.5 58 A 0.5 0.5 0 0 0 5 58.5 A 0.5 0.5 0 0 1 5.5 59 A 0.5 0.5 0 0 0 6 59.5 A 0.5 0.5 0 0 1 6.5 60 A 0.5 0.5 0 0 0 7 60.5 A 0.5 0.5 0 0 1 7.5 61 L 7.5 61.5 L 7.5 62 A 0.5 0.5 0 0 1 7 62.5 A 0.5 0.5 0 0 0 6.5 63 A 0.5 0.5 0 0 1 6 63.5 A 0.5 0.5 0 0 0 5.5 64 L 5.5 64.5 L 5.5 65 A 0.5 0.5 0 0 1 5 65.5 A 0.5 0.5 0 0 0 4.5 66 L 4.5 66.5 L 4.5 67 A 0.5 0.5 0 0 0 5 67.5 L 5.5 67.5 L 6 67.5 A 0.5 0.5 0 0 0 6.5 67 L 6.5 66.5 L 6.5 66 A 0.5 0.5 0 0 1 7 65.5 A 0.5 0.5 0 0 0 7.5 65 L 7.5 64.5 L 7.5 64 A 0.5 0.5 0 0 1 8 63.5 L 8.5 63.5 L 9 63.5 A 0.5 0.5 0 0 0 9.5 63 A 0.5 0.5 0 0 1 10 62.5 A 0.5 0.5 0 0 1 10.5 63 A 0.5 0.5 0 0 0 11 63.5 A 0.5 0.5 0 0 0 11.5 63 A 0.5 0.5 0 0 1 12 62.5 L 12.5 62.5 L 13 62.5 L 13.5 62.5 L 14 62.5 A 0.5 0.5 0 0 0 14.5 62 A 0.5 0.5 0 0 1 15 61.5 L 15.5 61.5 L 16 61.5 L 16.5 61.5 L 17 61.5 L 17.5 61.5 L 18 61.5 A 0.5 0.5 0 0 1 18.5 62 A 0.5 0.5 0 0 0 19 62.5 L 19.5 62.5 L 20 62.5 L 20.5 62.5 L 21 62.5 A 0.5 0.5 0 0 1 21.5 63 A 0.5 0.5 0 0 0 22 63.5 A 0.5 0.5 0 0 1 22.5 64 A 0.5 0.5 0 0 0 23 64.5 A 0.5 0.5 0 0 1 23.5 65 L 23.5 65.5 L 23.5 66 A 0.5 0.5 0 0 0 24 66.5 A 0.5 0.5 0 0 1 24.5 67 A 0.5 0.5 0 0 0 25 67.5 A 0.5 0.5 0 0 0 25.5 67 L 25.5 66.5 L 25.5 66 L 25.5 65.5 L 25.5 65 A 0.5 0.5 0 0 0 25 64.5 A 0.5 0.5 0 0 1 24.5 64 L 24.5 63.5 L 24.5 63 A 0.5 0.5 0 0 0 24 62.5 A 0.5 0.5 0 0 1 23.5 62 L 23.5 61.5 L 23.5 61 A 0.5 0.5 0 0 1 24 60.5 A 0.5 0.5 0 0 0 24.5 60 L 24.5 59.5 L 24.5 59 A 0.5 0.5 0 0 1 25 58.5 A 0.5 0.5 0 0 0 25.5 58 A 0.5 0.5 0 0 0 25 57.5 A 0.5 0.5 0 0 1 24.5 57 A 0.5 0.5 0 0 1 25 56.5 A 0.5 0.5 0 0 0 25.5 56 A 0.5 0.5 0 0 0 25 55.5 A 0.5 0.5 0 0 1 24.5 55 A 0.5 0.5 0 0 1 25 54.5 L 25.5 54.5 L 26 54.5 A 0.5 0.5 0 0 0 26.5 54 A 0.5 0.5 0 0 1 27 53.5 A 0.5 0.5 0 0 0 27.5 53 A 0.5 0.5 0 0 1 28 52.5 A 0.5 0.5 0 0 0 28.5 52 L 28.5 51.5 L 28.5 51 A 0.5 0.5 0 0 1 29 50.5 A 0.5 0.5 0 0 0 29.5 50 L 29.5 49.5 L 29.5 49 A 0.5 0.5 0 0 1 30 48.5 A 0.5 0.5 0 0 0 30.5 48 A 0.5 0.5 0 0 1 31 47.5 A 0.5 0.5 0 0 0 31.5 47 A 0.5 0.5 0 0 1 32 46.5 A 0.5 0.5 0 0 0 32.5 46 L 32.5 45.5 L 32.5 45 A 0.5 0.5 0 0 1 33 44.5 A 0.5 0.5 0 0 0 33.5 44 L 33.5 43.5 L 33.5 43 A 0.5 0.5 0 0 0 33 42.5 A 0.5 0.5 0 0 1 32.5 42 A 0.5 0.5 0 0 0 32 41.5 L 31.5 41.5 L 31 41.5 L 30.5 41.5 L 30 41.5 A 0.5 0.5 0 0 0 29.5 42 A 0.5 0.5 0 0 1 29 42.5 L 28.5 42.5 L 28 42.5 L 27.5 42.5 L 27 42.5 A 0.5 0.5 0 0 0 26.5 43 A 0.5 0.5 0 0 1 26 43.5 L 25.5 43.5 L 25 43.5 A 0.5 0.5 0 0 0 24.5 44 A 0.5 0.5 0 0 1 24 44.5 A 0.5 0.5 0 0 0 23.5 45 A 0.5 0.5 0 0 1 23 45.5 L 22.5 45.5 L 22 45.5 A 0.5 0.5 0 0 0 21.5 46 A 0.5 0.5 0 0 1 21 46.5 A 0.5 0.5 0 0 0 20.5 47 A 0.5 0.5 0 0 1 20 47.5 A 0.5 0.5 0 0 0 19.5 48 A 0.5 0.5 0 0 1 19 48.5 A 0.5 0.5 0 0 0 18.5 49 A 0.5 0.5 0 0 1 18 49.5 A 0.5 0.5 0 0 0 17.5 50 A 0.5 0.5 0 0 1 17 50.5 L 16.5 50.5 L 16 50.5 L 15.5 50.5 L 15 50.5 A 0.5 0.5 0 0 1 14.5 50 L 14.5 49.5 L 14.5 49 A 0.5 0.5 0 0 0 14 48.5 A 0.5 0.5 0 0 0 13.5 49 L 13.5 49.5 L 13.5 50 A 0.5 0.5 0 0 1 13 50.5 A 0.5 0.5 0 0 1 12.5 50 L 12.5 49.5 L 12.5 49 A 0.5 0.5 0 0 0 12 48.5 A 0.5 0.5 0 0 1 11.5 48 A 0.5 0.5 0 0 0 11 47.5 L 10.5 47.5 L 10 47.5 A 0.5 0.5 0 0 1 9.5 47 A 0.5 0.5 0 0 0 9 46.5 A 0.5 0.5 0 0 1 8.5 46 A 0.5 0.5 0 0 0 8 45.5 A 0.5 0.5 0 0 1 7.5 45 A 0.5 0.5 0 0 0 7 44.5 A 0.5 0.5 0 0 1 6.5 44 A 0.5 0.5 0 0 0 6 43.5 L 5.5 43.5 L 5 43.5 L 4.5 43.5 L 4 43.5 A 0.5 0.5 0 0 1 3.5 43 A 0.5 0.5 0 0 0 3 42.5 L 2.5 42.5 L 2 42.5 A 0.5 0.5 0 0 1 1.5 42 A 0.5 0.5 0 0 0 1 41.5 L 0.5 41.5 L 0 41.5 L -0.5 41.5 L -1 41.5 Z" />
  <path d="M 0 43.5 A 0.5 0.5 0 0 0 -0.5 44 L -0.5 44.5 L -0.5 45 A 0.5 0.5 0 0 0 0 45.5 L 0.5 45.5 L 1 45.5 A 0.5 0.5 0 0 0 1.5 45 L 1.5 44.5 L 1.5 44 A 0.5 0.5 0 0 0 1 43.5 L 0.5 43.5 L 0 43.5 Z" />
  <path d="M 30 43.5 A 0.5 0.5 0 0 0 29.5 44 L 29.5 44.5 L 29.5 45 A 0.5 0.5 0 0 0 30 45.5 L 30.5 45.5 L 31 45.5 A 0.5 0.5 0 0 0 31.5 45 L 31.5 44.5 L 31.5 44 A 0.5 0.5 0 0 0 31 43.5 L 30.5 43.5 L 30 43.5 Z" />
  <path d="M 26 45.5 A 0.5 0.5 0 0 0 25.5 46 A 0.5 0.5 0 0 1 25 46.5 L 24.5 46.5 L 24 46.5 A 0.5 0.5 0 0 0 23.5 47 A 0.5 0.5 0 0 1 23 47.5 A 0.5 0.5 0 0 0 22.5 48 A 0.5 0.5 0 0 0 23 48.5 L 23.5 48.5 L 24 48.5 A 0.5 0.5 0 0 1 24.5 49 A 0.5 0.5 0 0 0 25 49.5 A 0.5 0.5 0 0 1 25.5 50 L 25.5 50.5 L 25.5 51 A 0.5 0.5 0 0 0 26 51.5 A 0.5 0.5 0 0 0 26.5 51 A 0.5 0.5 0 0 1 27 50.5 A 0.5 0.5 0 0 0 27.5 50 L 27.5 49.5 L 27.5 49 L 27.5 48.5 L 27.5 48 A 0.5 0.5 0 0 1 28 47.5 A 0.5 0.5 0 0 0 28.5 47 A 0.5 0.5 0 0 0 28 46.5 A 0.5 0.5 0 0 1 27.5 46 A 0.5 0.5 0 0 0 27 45.5 L 26.5 45.5 L 26 45.5 Z" />
  <path d="M 2 47.5 A 0.5 0.5 0 0 0 1.5 48 A 0.5 0.5 0 0 0 2 48.5 A 0.5 0.5 0 0 1 2.5 49 A 0.5 0.5 0 0 0 3 49.5 A 0.5 0.5 0 0 1 3.5 50 A 0.5 0.5 0 0 0 4 50.5 A 0.5 0.5 0 0 0 4.5 50 A 0.5 0.5 0 0 1 5 49.5 A 0.5 0.5 0 0 0 5.5 49 A 0.5 0.5 0 0 0 5 48.5 L 4.5 48.5 L 4 48.5 A 0.5 0.5 0 0 1 3.5 48 A 0.5 0.5 0 0 0 3 47.5 L 2.5 47.5 L 2 47.5 Z" />
  <path d="M 7 49.5 A 0.5 0.5 0 0 0 6.5 50 L 6.5 50.5 L 6.5 51 L 6.5 51.5 L 6.5 52 A 0.5 0.5 0 0 0 7 52.5 A 0.5 0.5 0 0 0 7.5 52 L 7.5 51.5 L 7.5 51 A 0.5 0.5 0 0 1 8 50.5 A 0.5 0.5 0 0 0 8.5 50 A 0.5 0.5 0 0 0 8 49.5 L 7.5 49.5 L 7 49.5 Z" />
  <path d="M 9 50.5 A 0.5 0.5 0 0 0 8.5 51 L 8.5 51.5 L 8.5 52 L 8.5 52.5 L 8.5 53 L 8.5 53.5 L 8.5 54 A 0.5 0.5 0 0 0 9 54.5 A 0.5 0.5 0 0 1 9.5 55 A 0.5 0.5 0 0 1 9 55.5 A 0.5 0.5 0 0 0 8.5 56 A 0.5 0.5 0 0 1 8 56.5 A 0.5 0.5 0 0 0 7.5 57 A 0.5 0.5 0 0 0 8 57.5 A 0.5 0.5 0 0 1 8.5 58 A 0.5 0.5 0 0 0 9 58.5 A 0.5 0.5 0 0 0 9.5 58 L 9.5 57.5 L 9.5 57 A 0.5 0.5 0 0 1 10 56.5 A 0.5 0.5 0 0 0 10.5 56 L 10.5 55.5 L 10.5 55 L 10.5 54.5 L 10.5 54 A 0.5 0.5 0 0 0 10 53.5 A 0.5 0.5 0 0 1 9.5 53 L 9.5 52.5 L 9.5 52 A 0.5 0.5 0 0 1 10 51.5 A 0.5 0.5 0 0 0 10.5 51 A 0.5 0.5 0 0 0 10 50.5 L 9.5 50.5 L 9 50.5 Z" />
  <path d="M 21.5 51 L 21.5 51.5 L 21.5 52 A 0.5 0.5 0 0 0 22 52.5 A 0.5 0.5 0 0 0 22.5 52 L 22.5 51.5 L 22.5 51 A 0.5 0.5 0 0 0 22 50.5 A 0.5 0.5 0 0 0 21.5 51 Z" />
  <path d="M 10.5 52 L 10.5 52.5 L 10.5 53 A 0.5 0.5 0 0 0 11 53.5 A 0.5 0.5 0 0 1 11.5 54 A 0.5 0.5 0 0 0 12 54.5 A 0.5 0.5 0 0 0 12.5 54 L 12.5 53.5 L 12.5 53 A 0.5 0.5 0 0 0 12 52.5 A 0.5 0.5 0 0 1 11.5 52 A 0.5 0.5 0 0 0 11 51.5 A 0.5 0.5 0 0 0 10.5 52 Z" />
  <path d="M 18 52.5 A 0.5 0.5 0 0 0 17.5 53 L 17.5 53.5 L 17.5 54 A 0.5 0.5 0 0 0 18 54.5 A 0.5 0.5 0 0 0 18.5 54 A 0.5 0.5 0 0 1 19 53.5 A 0.5 0.5 0 0 0 19.5 53 A 0.5 0.5 0 0 0 19 52.5 L 18.5 52.5 L 18 52.5 Z" />
  <path d="M 20.5 53 A 0.5 0.5 0 0 1 20 53.5 A 0.5 0.5 0 0 0 19.5 54 L 19.5 54.5 L 19.5 55 L 19.5 55.5 L 19.5 56 L 19.5 56.5 L 19.5 57 A 0.5 0.5 0 0 0 20 57.5 A 0.5 0.5 0 0 1 20.5 58 L 20.5 58.5 L 20.5 59 A 0.5 0.5 0 0 0 21 59.5 A 0.5 0.5 0 0 0 21.5 59 A 0.5 0.5 0 0 1 22 58.5 A 0.5 0.5 0 0 0 22.5 58 A 0.5 0.5 0 0 0 22 57.5 A 0.5 0.5 0 0 1 21.5 57 A 0.5 0.5 0 0 0 21 56.5 A 0.5 0.5 0 0 1 20.5 56 A 0.5 0.5 0 0 1 21 55.5 A 0.5 0.5 0 0 0 21.5 55 L 21.5 54.5 L 21.5 54 L 21.5 53.5 L 21.5 53 A 0.5 0.5 0 0 0 21 52.5 A 0.5 0.5 0 0 0 20.5 53 Z" />
  <path d="M 22 55.5 A 0.5 0.5 0 0 0 21.5 56 A 0.5 0.5 0 0 0 22 56.5 A 0.5 0.5 0 0 1 22.5 57 A 0.5 0.5 0 0 0 23 57.5 A 0.5 0.5 0 0 0 23.5 57 L 23.5 56.5 L 23.5 56 A 0.5 0.5 0 0 0 23 55.5 L 22.5 55.5 L 22 55.5 Z" />
  <path d="M 11.5 56 A 0.5 0.5 0 0 1 11 56.5 A 0.5 0.5 0 0 0 10.5 57 L 10.5 57.5 L 10.5 58 A 0.5 0.5 0 0 1 10 58.5 A 0.5 0.5 0 0 0 9.5 59 A 0.5 0.5 0 0 0 10 59.5 L 10.5 59.5 L 11 59.5 A 0.5 0.5 0 0 0 11.5 59 L 11.5 58.5 L 11.5 58 A 0.5 0.5 0 0 1 12 57.5 A 0.5 0.5 0 0 0 12.5 57 L 12.5 56.5 L 12.5 56 A 0.5 0.5 0 0 0 12 55.5 A 0.5 0.5 0 0 0 11.5 56 Z" />
  <path d="M 13.5 56 L 13.5 56.5 L 13.5 57 A 0.5 0.5 0 0 0 14 57.5 A 0.5 0.5 0 0 0 14.5 57 L 14.5 56.5 L 14.5 56 A 0.5 0.5 0 0 0 14 55.5 A 0.5 0.5 0 0 0 13.5 56 Z" />
  <path d="M 17.5 56 L 17.5 56.5 L 17.5 57 L 17.5 57.5 L 17.5 58 A 0.5 0.5 0 0 0 18 58.5 A 0.5 0.5 0 0 1 18.5 59 A 0.5 0.5 0 0 0 19 59.5 A 0.5 0.5 0 0 0 19.5 59 L 19.5 58.5 L 19.5 58 A 0.5 0.5 0 0 0 19 57.5 A 0.5 0.5 0 0 1 18.5 57 L 18.5 56.5 L 18.5 56 A 0.5 0.5 0 0 0 18 55.5 A 0.5 0.5 0 0 0 17.5 56 Z" />
  <path d="M 13 58.5 A 0.5 0.5 0 0 0 12.5 59 A 0.5 0.5 0 0 0 13 59.5 A 0.5 0.5 0 0 1 13.5 60 A 0.5 0.5 0 0 0 14 60.5 L 14.5 60.5 L 15 60.5 A 0.5 0.5 0 0 0 15.5 60 A 0.5 0.5 0 0 1 16 59.5 A 0.5 0.5 0 0 0 16.5 59 L 16.5 58.5 L 16.5 58 A 0.5 0.5 0 0 0 16 57.5 A 0.5 0.5 0 0 0 15.5 58 A 0.5 0.5 0 0 1 15 58.5 L 14.5 58.5 L 14 58.5 L 13.5 58.5 L 13 58.5 Z" />
</g>
</svg>